<svg id="圖層_1" data-name="圖層 1" xmlns="http://www.w3.org/2000/svg" viewBox="0 0 254 60"><defs><style>.cls-1{fill:#293080;}</style></defs><title>cmp_logo_large</title><path class="cls-1" d="M31.08,2.65,26.27,14.46,23.37,13,19.52,23.86l-2.89-2.41L0,57.35S10.84,45.06,25.3,44.1,45.06,53,60,47.23c0,0-10.32,1.62-21.45-6C30.84,35.9,21,38.55,21,38.55s4.1-5.3,14.22-3.37c7.35,1.4,8.43,3.62,15.42,2.89,0,0-4.33-.48-13.25-5.3-4.12-2.22-12.29-1.69-12.29-1.69s4.82-6.26,18.31-1.92c0,0-5.3-5.06-15.66-2.89,0,0,2.41-5.07,10.84-4.1Z"/><path class="cls-1" d="M90.75,48.73a22,22,0,0,1-9,1.6c-10.65,0-17.8-7-17.8-19.25,0-13,8.2-20.11,18.8-20.11a18.54,18.54,0,0,1,8.15,1.5l-1.25,4.75a15.75,15.75,0,0,0-6.7-1.4c-7.4,0-12.9,5-12.9,15,0,9.4,4.9,14.65,12.8,14.65a17.1,17.1,0,0,0,6.9-1.35Z"/><path class="cls-1" d="M119,49.78h-5.8V33.67c0-3.94-1.35-7.25-5.25-7.25a6.13,6.13,0,0,0-5.9,6.5V49.78H96.2V9.67H102V26h.1a9.37,9.37,0,0,1,7.9-4.36c4.15,0,9,2.8,9,11.51Z"/><path class="cls-1" d="M129.15,18a3.26,3.26,0,0,1-3.35-3.35,3.28,3.28,0,0,1,3.4-3.4,3.24,3.24,0,0,1,3.35,3.4A3.24,3.24,0,0,1,129.15,18Zm2.9,31.81h-5.8V22.17h5.8Z"/><path class="cls-1" d="M162.25,49.78h-5.8V33.63c0-3.9-1.3-7.21-5.25-7.21-2.85,0-5.9,2.35-5.9,6.75V49.78h-5.8V30c0-3.06-.1-5.41-.2-7.76h5l.3,4.1h.15a9.44,9.44,0,0,1,8.35-4.7c4.3,0,9.1,2.8,9.1,11.3Z"/><path class="cls-1" d="M193.3,35.78c0,10.3-6.7,14.55-12.9,14.55-7.15,0-12.6-5.25-12.6-14.15,0-9.3,5.7-14.56,13-14.56C188.35,21.62,193.3,27.33,193.3,35.78ZM180.6,26c-4.95,0-6.85,5.3-6.85,10.05,0,5.4,2.55,9.95,6.8,9.95s6.8-4.55,6.8-10.06C187.35,31.38,185.45,26,180.6,26Z"/><path class="cls-1" d="M222.8,35.78c0,10.3-6.7,14.55-12.9,14.55-7.15,0-12.6-5.25-12.6-14.15,0-9.3,5.7-14.56,13-14.56C217.85,21.62,222.8,27.33,222.8,35.78ZM210.1,26c-4.95,0-6.85,5.3-6.85,10.05,0,5.4,2.55,9.95,6.8,9.95s6.8-4.55,6.8-10.06C216.85,31.38,215,26,210.1,26Z"/><path class="cls-1" d="M251.5,49.78h-7l-7.9-12.65-2.25,2.75v9.9h-5.8V9.67h5.8v25h.1c.65-1.05,1.4-2.25,2.1-3.2l6.85-9.21h6.85l-9.7,11.36Z"/></svg>