<svg id="圖層_1" data-name="圖層 1" xmlns="http://www.w3.org/2000/svg" viewBox="0 0 60 60"><defs><style>.cls-1{fill:#293080;}</style></defs><title>工作區域 1</title><path class="cls-1" d="M31.08,2.65,26.27,14.46,23.37,13,19.52,23.86l-2.89-2.41L0,57.35S10.84,45.06,25.3,44.1,45.06,53,60,47.23c0,0-10.32,1.62-21.45-6C30.84,35.9,21,38.55,21,38.55s4.1-5.3,14.22-3.37c7.35,1.4,8.43,3.62,15.42,2.89,0,0-4.33-.48-13.25-5.3-4.12-2.22-12.29-1.69-12.29-1.69s4.82-6.26,18.31-1.92c0,0-5.3-5.06-15.66-2.89,0,0,2.41-5.07,10.84-4.1Z"/></svg>